<svg width="28" height="28" viewBox="0 0 28 28" fill="none" xmlns="http://www.w3.org/2000/svg">
<path d="M10.5 25.6667C11.1444 25.6667 11.6667 25.1443 11.6667 24.5C11.6667 23.8557 11.1444 23.3333 10.5 23.3333C9.85571 23.3333 9.33337 23.8557 9.33337 24.5C9.33337 25.1443 9.85571 25.6667 10.5 25.6667Z" stroke="white" stroke-width="2" stroke-linecap="round" stroke-linejoin="round"/>
<path d="M23.3333 25.6667C23.9776 25.6667 24.5 25.1443 24.5 24.5C24.5 23.8557 23.9776 23.3333 23.3333 23.3333C22.689 23.3333 22.1666 23.8557 22.1666 24.5C22.1666 25.1443 22.689 25.6667 23.3333 25.6667Z" stroke="white" stroke-width="2" stroke-linecap="round" stroke-linejoin="round"/>
<path d="M1.16663 1.16666H5.83329L8.95996 16.7883C9.06664 17.3255 9.35885 17.8079 9.78543 18.1513C10.212 18.4947 10.7458 18.6772 11.2933 18.6667H22.6333C23.1808 18.6772 23.7146 18.4947 24.1412 18.1513C24.5677 17.8079 24.8599 17.3255 24.9666 16.7883L26.8333 6.99999H6.99996" stroke="white" stroke-width="2" stroke-linecap="round" stroke-linejoin="round"/>
</svg>
