<svg width="28" height="28" viewBox="0 0 28 28" fill="none" xmlns="http://www.w3.org/2000/svg">
<g clip-path="url(#clip0)">
<path d="M24.5877 9.72327L21.843 8.72429C22.8354 7.90431 23.2591 6.60367 22.9553 5.36774C22.3583 2.93945 19.3976 2.01764 17.527 3.67122L15.632 5.34641L15.2571 2.83407C14.8864 0.360608 12.0228 -0.829392 10.0083 0.644436C9.00103 1.38135 8.4652 2.65168 8.70282 3.94154L6.11512 2.99972C4.84199 2.53624 3.42892 3.19511 2.96545 4.4684L1.8449 7.54714C1.69019 7.97223 1.90938 8.44232 2.33452 8.59698C2.50695 8.65971 14.9532 13.1898 15.136 13.2563C14.618 13.2563 3.2741 13.2563 2.77503 13.2563C2.32265 13.2563 1.95592 13.623 1.95592 14.0754V25.5427C1.95592 26.8976 3.05825 28 4.41319 28H10.966H14.2423H20.7951C22.15 28 23.2524 26.8976 23.2524 25.5427V16.2105L23.886 16.4411C24.3091 16.5952 24.7804 16.3784 24.9359 15.9516L26.0565 12.8728C26.5198 11.5995 25.861 10.1867 24.5877 9.72327ZM10.1468 26.3618H4.41313C3.96147 26.3618 3.59403 25.9944 3.59403 25.5427V14.8945H10.1468V26.3618ZM13.4232 26.3618H11.785V14.8945H13.4232V26.3618ZM18.612 4.89863C19.5622 4.05857 21.0622 4.52982 21.3644 5.75892C21.6867 7.06939 20.42 8.20569 19.1523 7.745C18.074 7.35251 17.5686 7.1686 16.4888 6.77556L18.612 4.89863ZM10.9755 1.96667C11.9993 1.21778 13.4494 1.82547 13.6371 3.07699L14.0571 5.89039C13.7547 5.78035 11.6912 5.02922 11.3938 4.92105C10.126 4.45932 9.88648 2.76325 10.9755 1.96667ZM11.3614 10.1392L3.66446 7.33769L4.5049 5.02868C4.65939 4.60425 5.13042 4.38473 5.55479 4.53911C6.41612 4.85258 12.2163 6.96368 12.4819 7.06037L11.3614 10.1392ZM14.4402 11.2598L12.9008 10.6995L14.0214 7.62075L15.5608 8.18108L14.4402 11.2598ZM21.6141 25.5427C21.6141 25.9944 21.2466 26.3618 20.795 26.3618H15.0614V14.8945H19.6369L21.6141 15.6142V25.5427H21.6141ZM24.5169 12.3124L23.6765 14.6215L15.9796 11.82L17.1002 8.7413L24.0274 11.2626C24.4518 11.417 24.6714 11.8881 24.5169 12.3124Z" fill="white"/>
</g>
<defs>
<clipPath id="clip0">
<rect width="28" height="28" fill="white"/>
</clipPath>
</defs>
</svg>
