<svg width="32" height="32" viewBox="0 0 32 32" fill="none" xmlns="http://www.w3.org/2000/svg">
<g clip-path="url(#clip0)">
<path d="M8.00002 12.5714H1.14288C0.511674 12.5714 0 13.0831 0 13.7143V30.8571C0 31.4883 0.511674 32 1.14288 32H8.00002C8.63122 32 9.14289 31.4883 9.14289 30.8571V13.7143C9.14283 13.0831 8.63116 12.5714 8.00002 12.5714ZM6.85714 29.7143H2.28569V14.8572H6.85714V29.7143Z" fill="white"/>
<path d="M19.4285 0H12.5713C11.9401 0 11.4285 0.511674 11.4285 1.14288V30.8571C11.4285 31.4883 11.9401 32 12.5713 32H19.4285C20.0597 32 20.5714 31.4883 20.5714 30.8571V1.14288C20.5714 0.511674 20.0597 0 19.4285 0ZM18.2857 29.7142H13.7142V2.28569H18.2857V29.7142Z" fill="white"/>
<path d="M30.8571 9.14282H23.9999C23.3687 9.14282 22.8571 9.6545 22.8571 10.2857V30.8571C22.8571 31.4883 23.3687 32 23.9999 32H30.8571C31.4883 32 32 31.4883 32 30.8571V10.2857C32 9.6545 31.4883 9.14282 30.8571 9.14282ZM29.7142 29.7143H25.1427V11.4286H29.7142V29.7143Z" fill="white"/>
</g>
<defs>
<clipPath id="clip0">
<rect width="32" height="32" fill="white"/>
</clipPath>
</defs>
</svg>
