<svg width="56" height="56" viewBox="0 0 56 56" fill="none" xmlns="http://www.w3.org/2000/svg">
<path d="M27.665 55.33C42.944 55.33 55.33 42.944 55.33 27.665C55.33 12.386 42.944 0 27.665 0C12.386 0 0 12.386 0 27.665C0 42.944 12.386 55.33 27.665 55.33Z" fill="#BE00FB"/>
<path d="M30.4677 14.4637C30.4677 12.9692 29.2561 11.7576 27.7616 11.7576C26.267 11.7576 25.0554 12.9692 25.0554 14.4637V41.5231C25.0554 43.0177 26.267 44.2293 27.7616 44.2293C29.2561 44.2293 30.4677 43.0177 30.4677 41.5231V14.4637Z" fill="white"/>
<path d="M31.9042 13.1499L36.0469 16.2564V32.4812L31.9042 35.5837V13.1499Z" fill="white"/>
<path d="M31.9826 37.6591L38.0368 33.5345V16.9466L42.1795 20.0531V35.5877L42.0789 35.6551L31.9042 42.837L31.9826 37.6591Z" fill="white"/>
<path d="M23.5403 17.9817L17.4862 22.1063V38.6942L13.3435 35.5877L13.3435 20.0531L13.4441 19.9857L23.6188 12.8038L23.5403 17.9817Z" fill="white"/>
<path d="M23.6198 20.3992L19.4771 23.5057V39.7305L23.6198 42.833V20.3992Z" fill="white"/>
</svg>
