<svg width="28" height="28" viewBox="0 0 28 28" fill="none" xmlns="http://www.w3.org/2000/svg">
<g clip-path="url(#clip0)">
<path d="M13.9535 25.6279H3.48835C2.84648 25.6279 2.32559 25.107 2.32559 24.4652V3.53488C2.32559 2.89302 2.84654 2.37212 3.48835 2.37212H13.9535C14.5965 2.37212 15.1163 1.85237 15.1163 1.20935C15.1163 0.566338 14.5965 0.0464783 13.9535 0.0464783H3.48835C1.5651 0.0464783 0 1.61163 0 3.53488V24.4651C0 26.3883 1.5651 27.9534 3.48835 27.9534H13.9535C14.5965 27.9534 15.1163 27.4337 15.1163 26.7907C15.1163 26.1477 14.5965 25.6279 13.9535 25.6279Z" fill="white"/>
<path d="M27.6535 13.1721L20.5837 6.19533C20.1279 5.74415 19.3907 5.75 18.9396 6.20697C18.4884 6.66394 18.493 7.39998 18.9512 7.85115L24.0035 12.8372H10.4651C9.82212 12.8372 9.30237 13.3569 9.30237 13.9999C9.30237 14.643 9.82212 15.1628 10.4651 15.1628H24.0035L18.9512 20.1488C18.4931 20.6 18.4896 21.336 18.9396 21.793C19.1674 22.0232 19.4675 22.1395 19.7675 22.1395C20.0628 22.1395 20.3582 22.0278 20.5837 21.8046L27.6535 14.8278C27.8745 14.6092 28 14.3115 28 13.9999C28 13.6884 27.8756 13.3919 27.6535 13.1721Z" fill="white"/>
</g>
<defs>
<clipPath id="clip0">
<rect width="28" height="28" fill="white"/>
</clipPath>
</defs>
</svg>
