<svg width="40" height="40" viewBox="0 0 40 40" fill="none" xmlns="http://www.w3.org/2000/svg">
<path fill-rule="evenodd" clip-rule="evenodd" d="M20 40C31.0457 40 40 31.0457 40 20C40 8.9543 31.0457 0 20 0C8.9543 0 0 8.9543 0 20C0 31.0457 8.9543 40 20 40ZM23.3474 12.022L23.4011 12.0024H23.367L23.3474 12.022ZM16.7307 12.0008C16.7307 12.0008 13.9658 11.8966 10.9829 14.0675C10.9829 14.0675 8 19.1839 8 25.4914C8 25.4914 9.65338 28.323 14.1871 28.4304C14.1871 28.4304 14.8495 27.563 15.5183 26.7998C12.9715 26.0382 11.9805 24.515 11.9805 24.515L12.8316 24.9479C12.9956 25.0145 13.1603 25.0822 13.3261 25.1504L13.3276 25.151L13.3279 25.1511C15.6788 26.1181 18.2663 27.1823 22.6493 26.4711L22.718 26.4559L22.718 26.4559C23.6862 26.2414 24.6559 26.0265 25.6241 25.6005C25.8017 25.5107 25.9908 25.421 26.1896 25.3266L26.1897 25.3266L26.1898 25.3266L26.1898 25.3265C26.7123 25.0785 27.3027 24.7983 27.9333 24.4011C27.9333 24.4011 26.9406 25.9243 24.288 26.6859C24.8348 27.4443 25.6029 28.3132 25.6029 28.3132C29.319 28.2332 31.1735 26.3178 31.7768 25.6947C31.9099 25.5573 31.9821 25.4827 32 25.5045C32 19.2067 28.9992 14.0805 28.9992 14.0805C26.3173 12.1196 23.8112 12.0317 23.3377 12.0301L23.035 12.3279C26.4605 13.3043 28.1188 14.8291 28.1188 14.8291C23.1489 12.3816 17.7803 12.2416 12.8641 14.1749C12.0911 14.5053 11.6485 14.7217 11.6485 14.7217C11.6485 14.7217 13.3035 13.0911 16.9536 12.2205L16.7307 12.0008ZM25.7933 21.3564C25.7933 22.5606 24.8511 23.537 23.6941 23.537C22.537 23.537 21.5948 22.5606 21.5948 21.3661C21.5981 20.1619 22.5419 19.1888 23.6941 19.1888V19.1839C24.856 19.1839 25.7933 20.1603 25.7933 21.3564ZM16.179 23.537C17.336 23.537 18.2783 22.5606 18.2783 21.3564C18.2783 20.1603 17.3426 19.1839 16.1855 19.1839L16.179 19.1888C15.022 19.1888 14.0797 20.1619 14.0797 21.3661C14.0797 22.5606 15.022 23.537 16.179 23.537Z" fill="white"/>
</svg>
