<svg width="32" height="32" viewBox="0 0 32 32" fill="none" xmlns="http://www.w3.org/2000/svg">
<g clip-path="url(#clip0)">
<path d="M31.1999 13.856C31.1989 13.8552 31.1982 13.8543 31.1975 13.8535L18.144 0.800539C17.5876 0.243897 16.8478 -0.0625 16.061 -0.0625C15.2741 -0.0625 14.5344 0.243897 13.9777 0.800539L0.931065 13.8469C0.92667 13.8513 0.922032 13.856 0.917881 13.8604C-0.224699 15.0095 -0.222746 16.8741 0.923496 18.0203C1.44718 18.5442 2.13859 18.8474 2.87809 18.8794C2.90836 18.8824 2.93864 18.8838 2.96916 18.8838H3.48918V28.4898C3.48918 30.3909 5.03605 31.9376 6.93718 31.9376H12.0441C12.5619 31.9376 12.9816 31.5176 12.9816 31.0001V23.4688C12.9816 22.6014 13.6874 21.8958 14.5549 21.8958H17.5671C18.4345 21.8958 19.1401 22.6014 19.1401 23.4688V31.0001C19.1401 31.5176 19.5598 31.9376 20.0776 31.9376H25.1845C27.0859 31.9376 28.6325 30.3909 28.6325 28.4898V18.8838H29.115C29.9016 18.8838 30.6413 18.5774 31.1982 18.0205C32.3457 16.8726 32.3462 15.0047 31.1999 13.856ZM29.8723 16.6949C29.6699 16.8972 29.4008 17.0088 29.115 17.0088H27.695C27.1772 17.0088 26.7575 17.4285 26.7575 17.9463V28.4898C26.7575 29.357 26.052 30.0626 25.1845 30.0626H21.0151V23.4688C21.0151 21.5677 19.4685 20.0208 17.5671 20.0208H14.5549C12.6535 20.0208 11.1066 21.5677 11.1066 23.4688V30.0626H6.93718C6.06999 30.0626 5.36418 29.357 5.36418 28.4898V17.9463C5.36418 17.4285 4.9445 17.0088 4.42668 17.0088H3.03117C3.01652 17.0078 3.00211 17.0071 2.98722 17.0069C2.70792 17.002 2.44596 16.8911 2.24967 16.6946C1.83219 16.2771 1.83219 15.5977 2.24967 15.18C2.24992 15.18 2.24992 15.1797 2.25016 15.1795L2.25089 15.1787L15.3039 2.12622C15.506 1.92383 15.7748 1.8125 16.061 1.8125C16.3469 1.8125 16.6157 1.92383 16.8181 2.12622L29.8681 15.1761C29.8701 15.178 29.8723 15.18 29.8742 15.1819C30.2895 15.6001 30.2888 16.2781 29.8723 16.6949Z" fill="white"/>
</g>
<defs>
<clipPath id="clip0">
<rect width="32" height="32" fill="white"/>
</clipPath>
</defs>
</svg>
