<svg width="38" height="38" viewBox="0 0 38 38" fill="none" xmlns="http://www.w3.org/2000/svg">
<g clip-path="url(#clip0)">
<path d="M7.49274 32.8007C9.73077 32.8007 11.5451 30.9864 11.5451 28.7484C11.5451 26.5103 9.73077 24.696 7.49274 24.696C5.25471 24.696 3.44043 26.5103 3.44043 28.7484C3.44043 30.9864 5.25471 32.8007 7.49274 32.8007Z" fill="#DB6BFF"/>
<path d="M33.5659 29.2071C35.5084 29.2071 37.083 27.6325 37.083 25.69C37.083 23.7476 35.5084 22.1729 33.5659 22.1729C31.6235 22.1729 30.0488 23.7476 30.0488 25.69C30.0488 27.6325 31.6235 29.2071 33.5659 29.2071Z" fill="#EFBDFF"/>
<path d="M30.3539 11.4691C31.9585 11.4691 33.2593 10.1683 33.2593 8.56364C33.2593 6.95901 31.9585 5.6582 30.3539 5.6582C28.7493 5.6582 27.4485 6.95901 27.4485 8.56364C27.4485 10.1683 28.7493 11.4691 30.3539 11.4691Z" fill="#EFBDFF"/>
<path d="M4.30042 22.9092C6.67548 22.9092 8.60085 21.0308 8.60085 18.7136C8.60085 16.3964 6.67548 14.518 4.30042 14.518C1.92536 14.518 0 16.3964 0 18.7136C0 21.0308 1.92536 22.9092 4.30042 22.9092Z" fill="#D961FF"/>
<path d="M16.6539 38.0001C18.813 38.0001 20.5634 36.2945 20.5634 34.1905C20.5634 32.0866 18.813 30.381 16.6539 30.381C14.4947 30.381 12.7444 32.0866 12.7444 34.1905C12.7444 36.2945 14.4947 38.0001 16.6539 38.0001Z" fill="#DC71FF"/>
<path d="M26.7015 36.3311C28.7527 36.3311 30.4155 34.7121 30.4155 32.7148C30.4155 30.7176 28.7527 29.0986 26.7015 29.0986C24.6504 29.0986 22.9875 30.7176 22.9875 32.7148C22.9875 34.7121 24.6504 36.3311 26.7015 36.3311Z" fill="#E491FF"/>
<path d="M8.95239 13.1657C11.4354 13.1657 13.4482 11.2009 13.4482 8.77724C13.4482 6.35353 11.4354 4.38873 8.95239 4.38873C6.4694 4.38873 4.45654 6.35353 4.45654 8.77724C4.45654 11.2009 6.4694 13.1657 8.95239 13.1657Z" fill="#CC2FFF"/>
<path d="M34.6771 19.8131C36.5123 19.8131 38.0001 18.3529 38.0001 16.5516C38.0001 14.7504 36.5123 13.2902 34.6771 13.2902C32.8418 13.2902 31.354 14.7504 31.354 16.5516C31.354 18.3529 32.8418 19.8131 34.6771 19.8131Z" fill="#F3CDFF"/>
<path d="M20.1084 9.48089C22.7264 9.48089 24.8488 7.35852 24.8488 4.74044C24.8488 2.12237 22.7264 0 20.1084 0C17.4903 0 15.3679 2.12237 15.3679 4.74044C15.3679 7.35852 17.4903 9.48089 20.1084 9.48089Z" fill="#BE00FB"/>
</g>
<defs>
<clipPath id="clip0">
<rect width="38" height="38" fill="white"/>
</clipPath>
</defs>
</svg>
