<svg width="123" height="188" viewBox="0 0 123 188" fill="none" xmlns="http://www.w3.org/2000/svg">
<path d="M61.5 117C93.8087 117 120 90.8087 120 58.5C120 26.1913 93.8087 0 61.5 0C29.1913 0 3 26.1913 3 58.5C3 90.8087 29.1913 117 61.5 117Z" fill="#BE00FB"/>
<path d="M67.4265 30.5849C67.4265 27.4245 64.8645 24.8625 61.7042 24.8625C58.5438 24.8625 55.9818 27.4245 55.9818 30.5849V87.8043C55.9818 90.9646 58.5438 93.5266 61.7042 93.5266C64.8645 93.5266 67.4265 90.9646 67.4265 87.8043V30.5849Z" fill="white"/>
<path d="M70.4642 27.8067L79.2243 34.3757V68.6843L70.4642 75.2449V27.8067Z" fill="white"/>
<path d="M70.6302 79.6333L83.4321 70.9115V35.8349L92.1922 42.4039V75.2533L91.9795 75.3958L70.4642 90.5824L70.6302 79.6333Z" fill="white"/>
<path d="M52.778 38.0239L39.9761 46.7458V81.8224L31.216 75.2533L31.216 42.404L31.4287 42.2615L52.944 27.0749L52.778 38.0239Z" fill="white"/>
<path d="M52.946 43.1358L44.1859 49.7048V84.0135L52.946 90.574V43.1358Z" fill="white"/>
<path d="M12.5547 162.375L18.4727 149.562H24.8789L15.543 167.688V178H9.58594V167.688L0.25 149.562H6.67578L12.5547 162.375ZM44.5859 166.379H33.3359V178H27.4766V149.562H45.9922V154.309H33.3359V161.652H44.5859V166.379ZM66.5 165.676H55.25V173.293H68.4531V178H49.3906V149.562H68.4141V154.309H55.25V161.086H66.5V165.676ZM93.6875 154.309H84.9766V178H79.1172V154.309H70.5234V149.562H93.6875V154.309ZM120.191 178H114.332V165.812H102.906V178H97.0469V149.562H102.906V161.086H114.332V149.562H120.191V178Z" fill="white"/>
</svg>
