<svg width="56" height="56" viewBox="0 0 56 56" fill="none" xmlns="http://www.w3.org/2000/svg">
<path d="M17.268 50.6528C12.5123 50.4035 8.49329 47.0423 7.40681 42.4056L9.84278 43.6236C10.4118 43.9078 11.1035 43.677 11.3877 43.1079C11.6719 42.5389 11.441 41.8472 10.872 41.5629L6.26712 39.2606C6.23485 39.2445 6.19805 39.2467 6.16351 39.2329C6.01673 39.1769 5.86002 39.1511 5.70299 39.1569C5.66619 39.155 5.62928 39.155 5.59248 39.1569C5.55654 39.1674 5.52125 39.1797 5.4866 39.1937C5.19175 39.2631 4.93608 39.446 4.77516 39.7026C4.75671 39.7325 4.72681 39.7532 4.71073 39.7855L2.40836 44.3903C2.12409 44.959 2.35462 45.6505 2.92328 45.9349C2.9236 45.935 2.92381 45.9352 2.92414 45.9353C3.08905 46.0149 3.27069 46.0537 3.45373 46.0481C3.89018 46.0489 4.28961 45.8029 4.48517 45.4126L5.37846 43.6259C6.90204 48.9831 11.7022 52.7497 17.268 52.9553C17.9038 52.9553 18.4193 52.4398 18.4193 51.804C18.4193 51.1682 17.9038 50.6528 17.268 50.6528Z" fill="#BE00FB"/>
<path d="M52.3198 9.327C51.7511 9.04272 51.0597 9.27325 50.7753 9.84191C50.7752 9.84223 50.775 9.84245 50.7749 9.84277L49.8816 11.6295C48.3569 6.27239 43.5556 2.50667 37.9896 2.30237C37.3538 2.30237 36.8384 2.81782 36.8384 3.4536C36.8384 4.08939 37.3538 4.60484 37.9896 4.60484C42.7431 4.85458 46.7605 8.21342 47.8485 12.8474L45.4125 11.6295C44.8435 11.3453 44.1518 11.5762 43.8675 12.1452C43.5834 12.7142 43.8142 13.4059 44.3833 13.6902L48.9882 15.9926C49.0042 15.9926 49.0204 15.9926 49.0365 15.9926C49.1808 16.067 49.3394 16.1094 49.5015 16.1169C49.7112 16.1188 49.9172 16.0614 50.0956 15.9511L50.1163 15.9327C50.2684 15.832 50.394 15.6962 50.4824 15.5367C50.4962 15.5137 50.5216 15.5044 50.533 15.4814L52.8354 10.8766C53.1217 10.3089 52.8936 9.61667 52.3261 9.33023C52.324 9.32915 52.3218 9.32807 52.3198 9.327Z" fill="#BE00FB"/>
<path d="M17.268 34.536C26.8049 34.536 34.536 26.8049 34.536 17.268C34.536 7.73115 26.8049 0 17.268 0C7.73115 0 0 7.73115 0 17.268C0 26.8049 7.73115 34.536 17.268 34.536Z" fill="#BE00FB"/>
<path d="M19.0174 9.02802C19.0174 8.09514 18.2612 7.3389 17.3283 7.3389C16.3954 7.3389 15.6392 8.09514 15.6392 9.02802V25.918C15.6392 26.8509 16.3954 27.6071 17.3283 27.6071C18.2612 27.6071 19.0174 26.8509 19.0174 25.918V9.02802Z" fill="white"/>
<path d="M19.9141 8.20795L22.4999 10.147V20.2742L19.9141 22.2107V8.20795Z" fill="white"/>
<path d="M19.963 23.5062L23.7419 20.9317V10.5778L26.3277 12.5168V22.2133L26.2649 22.2553L19.9141 26.7381L19.963 23.5062Z" fill="white"/>
<path d="M14.6935 11.2239L10.9146 13.7984L10.9146 24.1523L8.32878 22.2132L8.32878 12.5168L8.39157 12.4747L14.7424 7.99193L14.6935 11.2239Z" fill="white"/>
<path d="M14.743 12.7328L12.1572 14.6719V24.7991L14.743 26.7356V12.7328Z" fill="white"/>
<path d="M54.1704 35.7597C54.1704 45.9277 45.9277 54.1705 35.7597 54.1705C25.591 54.1705 17.3483 45.9277 17.3483 35.7597C17.3483 25.5916 25.591 17.3483 35.7597 17.3483C45.9277 17.3483 54.1704 25.5916 54.1704 35.7597Z" fill="#FF8533"/>
<path d="M49.9774 35.7596C49.9774 43.6123 43.6116 49.9775 35.7596 49.9775C27.9069 49.9775 21.5411 43.6123 21.5411 35.7596C21.5411 27.907 27.9069 21.5412 35.7596 21.5412C43.6116 21.5412 49.9774 27.907 49.9774 35.7596Z" fill="#FCDF6C"/>
<path d="M35.7596 21.5412C34.4116 21.5412 33.1084 21.7284 31.8734 22.0787C37.837 23.769 42.2057 29.2543 42.2057 35.7596C42.2057 42.265 37.837 47.7497 31.8734 49.44C33.1084 49.7903 34.4116 49.9775 35.7596 49.9775C43.6122 49.9775 49.9774 43.6117 49.9774 35.7596C49.9774 27.907 43.6122 21.5412 35.7596 21.5412Z" fill="#F4B425"/>
<path d="M55.3299 35.7597C55.3299 24.9684 46.5503 16.1888 35.7596 16.1888C24.9684 16.1888 16.1887 24.9684 16.1887 35.7597C16.1887 46.5503 24.9684 55.33 35.7596 55.33C46.5503 55.33 55.3299 46.5503 55.3299 35.7597ZM35.7596 53.011C26.2468 53.011 18.5077 45.2719 18.5077 35.7597C18.5077 26.2469 26.2468 18.5078 35.7596 18.5078C45.2718 18.5078 53.0109 26.2469 53.0109 35.7597C53.0109 45.2719 45.2718 53.011 35.7596 53.011Z" fill="black"/>
<path d="M21.5411 34.585C22.1722 34.6883 22.7695 34.2601 22.8733 33.6278C23.3685 30.6095 24.9284 27.843 27.2656 25.8398C29.6274 23.8155 32.644 22.7007 35.7595 22.7007C38.8745 22.7007 41.8916 23.8155 44.2529 25.8398C46.5901 27.843 48.15 30.6095 48.6452 33.6278C48.7388 34.1967 49.2304 34.6001 49.7878 34.6001C49.8506 34.6001 49.914 34.5953 49.9774 34.5844C50.6091 34.4812 51.0372 33.8845 50.9334 33.2528C50.35 29.6952 48.5135 26.4377 45.7627 24.0794C42.9805 21.6946 39.4277 20.3817 35.7595 20.3817C32.0908 20.3817 28.538 21.6946 25.7564 24.0794C23.005 26.4377 21.1685 29.6952 20.5851 33.2528C20.4812 33.8845 20.9094 34.4812 21.5411 34.585Z" fill="black"/>
<path d="M49.9774 36.9343C49.3457 36.8304 48.749 37.2586 48.6452 37.8909C48.15 40.9098 46.5901 43.6757 44.2529 45.6789C41.891 47.7032 38.8745 48.8186 35.7595 48.8186C32.644 48.8186 29.6274 47.7032 27.2656 45.6789C24.9284 43.6757 23.3685 40.9098 22.8733 37.8909C22.7695 37.2592 22.1728 36.8304 21.5411 36.9343C20.9094 37.0381 20.4812 37.6342 20.5851 38.2659C21.1685 41.8235 23.005 45.081 25.7564 47.4393C28.538 49.8241 32.0908 51.137 35.7595 51.137C39.4277 51.137 42.9805 49.8241 45.7627 47.4393C48.5135 45.081 50.35 41.8235 50.9334 38.2659C51.0372 37.6342 50.6091 37.0381 49.9774 36.9343Z" fill="black"/>
<g filter="url(#filter0_d)">
<path d="M33.4855 34.1313L36.6081 31.0088L39.7321 34.1327L41.549 32.3158L36.6081 27.375L31.6688 32.3143L33.4856 34.1312L33.4855 34.1313ZM28.5688 35.4143L30.3858 33.5971L32.2026 35.4139L30.3857 37.2308L28.5688 35.4143ZM33.4855 36.6974L36.6081 39.8198L39.7321 36.6959L41.5499 38.5118L41.549 38.5128L36.6081 43.4535L31.6688 38.5142L31.6662 38.5116L33.4857 36.6972L33.4855 36.6974ZM41.0136 35.415L42.8305 33.5981L44.6473 35.4149L42.8305 37.2319L41.0136 35.415Z" fill="white"/>
<path d="M38.4509 35.4133H38.4516L36.6081 33.5697L35.2455 34.9319L35.089 35.0885L34.7661 35.4114L34.7635 35.4139L34.7661 35.4166L36.6081 37.2588L38.4518 35.4152L38.4527 35.4142L38.451 35.4133" fill="white"/>
</g>
<defs>
<filter id="filter0_d" x="24.5688" y="27.375" width="24.0785" height="24.0785" filterUnits="userSpaceOnUse" color-interpolation-filters="sRGB">
<feFlood flood-opacity="0" result="BackgroundImageFix"/>
<feColorMatrix in="SourceAlpha" type="matrix" values="0 0 0 0 0 0 0 0 0 0 0 0 0 0 0 0 0 0 127 0"/>
<feOffset dy="4"/>
<feGaussianBlur stdDeviation="2"/>
<feColorMatrix type="matrix" values="0 0 0 0 0 0 0 0 0 0 0 0 0 0 0 0 0 0 0.25 0"/>
<feBlend mode="normal" in2="BackgroundImageFix" result="effect1_dropShadow"/>
<feBlend mode="normal" in="SourceGraphic" in2="effect1_dropShadow" result="shape"/>
</filter>
</defs>
</svg>
