<svg width="40" height="40" viewBox="0 0 40 40" fill="none" xmlns="http://www.w3.org/2000/svg">
<path fill-rule="evenodd" clip-rule="evenodd" d="M20 40C31.0457 40 40 31.0457 40 20C40 8.9543 31.0457 0 20 0C8.9543 0 0 8.9543 0 20C0 31.0457 8.9543 40 20 40ZM30 12.3377L28.4042 13.8804C28.2675 13.984 28.1975 14.1592 28.2267 14.3301V25.6707C28.1975 25.8408 28.2683 26.016 28.405 26.1204L29.9633 27.6623V28H22.12V27.6615L23.7367 26.0808C23.8933 25.9225 23.8933 25.8728 23.8933 25.6312V16.4682L19.3992 27.9705H18.7917L13.565 16.4682V24.1768C13.5192 24.5027 13.6267 24.8269 13.8542 25.0611L15.9542 27.6286V27.9663H10V27.6328L12.1 25.0611C12.3233 24.8278 12.4267 24.4977 12.3692 24.1768V15.2648C12.3933 15.0181 12.2983 14.7731 12.1167 14.6055L10.2525 12.3377V12H16.0492L20.5317 21.9099L24.4717 12H30V12.3377Z" fill="white"/>
</svg>
