<svg width="98" height="98" viewBox="0 0 98 98" fill="none" xmlns="http://www.w3.org/2000/svg">
<path d="M3.12168 58.0932L5.33781 64.1016L11.2669 73.2255C13.1907 75.4895 15.578 77.3161 18.2757 78.5609C21.309 79.9614 24.4859 81.7184 26.717 84.1297C28.1727 85.7043 28.9959 87.7036 29.1342 95.2223H44.7002V86.2621C44.1694 80.9498 42.1768 74.9721 35.977 72.8419L30.4472 70.9219L20.7572 62.6967C19.8705 61.9445 18.5546 61.9961 17.7306 62.817C16.8835 63.6604 16.8484 65.0197 17.6514 65.9057L21.8728 70.474L14.4775 67.0691L9.82987 61.4675L7.80216 56.31C7.34832 55.1556 6.11764 54.5073 4.90939 54.7862C3.4387 55.1242 2.59905 56.6771 3.12168 58.0932Z" fill="#FFCEB6"/>
<path d="M35.977 72.8419L30.4464 70.9226L20.7572 62.6974C19.8704 61.9445 18.5545 61.9968 17.7306 62.817C16.8835 63.6604 16.8483 65.0204 17.6513 65.9057L21.872 70.474L26.1943 72.8419C32.3933 74.9721 34.3859 80.9505 34.9175 86.262V95.2222H44.7002V86.262C44.1693 80.9505 42.1768 74.9721 35.977 72.8419Z" fill="#EDBDA6"/>
<path d="M28.6191 89.5077H45.1854C45.969 89.5077 46.6053 90.1432 46.6053 90.9275V95.1444C46.6053 95.9287 45.969 96.5643 45.1854 96.5643H28.6191C27.8347 96.5643 27.1992 95.9287 27.1992 95.1444V90.9275C27.1992 90.1432 27.8347 89.5077 28.6191 89.5077Z" fill="#7FD19B"/>
<path d="M45.1854 89.5077H36.9019V96.5643H45.1854C45.969 96.5643 46.6053 95.9287 46.6053 95.1444V90.9275C46.6053 90.1432 45.969 89.5077 45.1854 89.5077Z" fill="#3CAB8B"/>
<path d="M95.0735 58.0932L92.8574 64.1016L86.9283 73.2255C85.0045 75.4895 82.6172 77.3161 79.9195 78.5609C76.8862 79.9614 73.7093 81.7184 71.4782 84.1297C70.0225 85.7043 69.1993 87.7036 69.061 95.2223H53.495V86.2621C54.0258 80.9498 56.0184 74.9721 62.2182 72.8419L67.748 70.9219L77.438 62.6967C78.3247 61.9445 79.6406 61.9961 80.4646 62.817C81.3117 63.6604 81.3468 65.0197 80.5438 65.9057L76.3224 70.474L83.7185 67.0691L88.3653 61.4675L90.3938 56.31C90.8476 55.1556 92.0776 54.5073 93.2858 54.7862C94.7565 55.1242 95.5961 56.6771 95.0735 58.0932Z" fill="#FFCEB6"/>
<path d="M93.878 55.006L90.4955 62.7647L84.3698 70.474C82.446 72.738 72.9639 77.3161 70.2663 78.5609C67.2329 79.9613 64.056 81.7184 61.825 84.1297C60.3685 85.7043 59.546 87.7036 59.4077 95.2223H69.061C69.1993 87.7036 70.0218 85.7043 71.4783 84.1297C73.7093 81.7184 76.8862 79.9621 79.9196 78.5609C82.6172 77.3161 85.0046 75.4895 86.9291 73.2255L92.8574 64.1015L95.0743 58.0932C95.5207 56.8812 94.9681 55.5713 93.878 55.006Z" fill="#EDBDA6"/>
<path d="M69.5762 89.5077H53.0098C52.2262 89.5077 51.59 90.1432 51.59 90.9275V95.1444C51.59 95.9287 52.2262 96.5643 53.0098 96.5643H69.5762C70.3605 96.5643 70.996 95.9287 70.996 95.1444V90.9275C70.996 90.1432 70.3605 89.5077 69.5762 89.5077Z" fill="#7FD19B"/>
<path d="M69.5761 89.5077H61.2933V96.5643H69.5761C70.3605 96.5643 70.996 95.9287 70.996 95.1444V90.9275C70.996 90.1432 70.3605 89.5077 69.5761 89.5077Z" fill="#3CAB8B"/>
<path d="M71.8918 45.5995C71.8918 58.1882 61.6867 68.3933 49.098 68.3933C36.5086 68.3933 26.3035 58.1882 26.3035 45.5995C26.3035 33.0108 36.5086 22.805 49.098 22.805C61.6867 22.805 71.8918 33.0108 71.8918 45.5995Z" fill="#FF8533"/>
<path d="M66.7007 45.5995C66.7007 55.3216 58.8194 63.2021 49.098 63.2021C39.3759 63.2021 31.4946 55.3216 31.4946 45.5995C31.4946 35.8774 39.3759 27.9961 49.098 27.9961C58.8194 27.9961 66.7007 35.8774 66.7007 45.5995Z" fill="#FCDF6C"/>
<path d="M49.0979 27.9961C47.4291 27.9961 45.8156 28.2279 44.2866 28.6615C51.67 30.7543 57.0787 37.5455 57.0787 45.5995C57.0787 53.6535 51.67 60.444 44.2866 62.5367C45.8156 62.9704 47.4291 63.2021 49.0979 63.2021C58.82 63.2021 66.7006 55.3208 66.7006 45.5995C66.7006 35.8774 58.82 27.9961 49.0979 27.9961Z" fill="#F4B425"/>
<path d="M82.0446 18.6202L83.7934 23.2708L88.7565 23.4966C89.3023 23.522 89.5259 24.2091 89.0989 24.5501L85.2162 27.6507L86.5351 32.4404C86.6802 32.9667 86.0955 33.3922 85.6394 33.0916L81.4913 30.3573L77.3432 33.0916C76.8871 33.3922 76.3016 32.9675 76.4467 32.4404L77.7656 27.6507L73.8829 24.5501C73.4567 24.2099 73.6803 23.522 74.2253 23.4974L79.1884 23.2708L80.9373 18.6202C81.1294 18.1088 81.8524 18.1088 82.0446 18.6202Z" fill="#E4EAF7"/>
<path d="M17.2581 18.6202L19.0069 23.2708L23.97 23.4966C24.5158 23.522 24.7394 24.2091 24.3125 24.5501L20.4298 27.6507L21.7487 32.4404C21.8937 32.9667 21.3083 33.3922 20.8529 33.0916L16.7041 30.3573L12.5559 33.0916C12.1006 33.3922 11.5152 32.9675 11.6602 32.4404L12.9791 27.6507L9.09641 24.5501C8.66949 24.2099 8.89304 23.522 9.43885 23.4974L14.402 23.2708L16.1508 18.6202C16.3429 18.1088 17.0659 18.1088 17.2581 18.6202Z" fill="#E4EAF7"/>
<path d="M49.6514 1.81911L51.4002 6.46968L56.3633 6.69548C56.9092 6.72016 57.1327 7.40802 56.7058 7.74897L52.8231 10.8488L54.142 15.6392C54.287 16.1656 53.7016 16.591 53.2463 16.2897L49.0981 13.5555L44.95 16.2905C44.4939 16.591 43.9085 16.1656 44.0535 15.6392L45.3724 10.8488L41.4897 7.74897C41.0628 7.40802 41.2864 6.72016 41.8322 6.69548L46.7953 6.46968L48.5441 1.81911C48.7362 1.3077 49.4593 1.3077 49.6514 1.81911Z" fill="#E4EAF7"/>
<path d="M46.1357 88.2344V86.262C46.1357 86.2149 46.1335 86.1671 46.129 86.1192C45.3626 78.4592 42.0137 73.3982 36.448 71.4856L31.1709 69.6546L21.6866 61.6028C20.2428 60.3766 18.0603 60.4641 16.7175 61.7994C15.5115 63.0009 15.3066 64.832 16.1373 66.2534L15.3739 65.902L11.0815 60.728L9.13748 55.7843C8.42943 53.9832 6.47275 52.9521 4.5871 53.3873C3.48427 53.6407 2.54369 54.357 2.00536 55.3529C1.46703 56.3481 1.38329 57.5279 1.77507 58.5896L3.9912 64.5987C4.02783 64.6989 4.07643 64.7946 4.13475 64.8836L10.0631 74.0083C10.0968 74.0599 10.1334 74.1085 10.173 74.1556C12.2284 76.5743 14.8221 78.5482 17.6738 79.8649C20.0275 80.9513 23.4167 82.6769 25.6635 85.1054C26.2407 85.7289 26.7895 86.4729 27.173 88.4662C26.3304 88.9634 25.7637 89.8808 25.7637 90.9276V95.1445C25.7637 96.7191 27.0444 97.9999 28.6191 97.9999H45.1854C46.76 97.9999 48.0408 96.7191 48.0408 95.1445V90.9276C48.0408 89.6864 47.2445 88.6269 46.1357 88.2344ZM18.8768 77.2577C16.4281 76.1272 14.197 74.4367 12.4191 72.3649L6.62901 63.454L4.46822 57.596C4.32317 57.2019 4.44504 56.8767 4.53102 56.7182C4.61701 56.5597 4.82187 56.2793 5.2316 56.1851C5.74226 56.067 6.27387 56.3466 6.46602 56.8348L8.49373 61.9923C8.54981 62.1336 8.62756 62.266 8.72476 62.3834L13.3723 67.9857C13.5092 68.151 13.6819 68.2833 13.877 68.373L20.9957 71.6501L24.7491 75.9201C25.0324 76.2424 25.4294 76.4076 25.828 76.4076C26.1644 76.4076 26.5024 76.2895 26.7753 76.0502C27.3704 75.5268 27.4287 74.6199 26.9054 74.024L22.9509 69.526C22.9419 69.5155 22.9322 69.505 22.9225 69.4953L18.7153 64.9412C18.4267 64.6234 18.4394 64.1374 18.7437 63.8346C19.036 63.543 19.513 63.5236 19.8286 63.7912L29.5178 72.0172C29.6531 72.1316 29.8086 72.2206 29.9761 72.2782L35.5112 74.199C39.9898 75.7384 42.5984 79.8215 43.2654 86.3346V88.0722H30.0195C29.5477 85.5278 28.7708 84.2358 27.7712 83.1547C25.1775 80.3524 21.4525 78.4473 18.8768 77.2577ZM45.1697 95.1288H28.6348V90.9433H45.1697V95.1288Z" fill="black"/>
<path d="M96.1899 55.3529C95.6523 54.357 94.7109 53.6407 93.6081 53.3873C91.7225 52.9521 89.7658 53.9832 89.0577 55.7843L87.1138 60.7273L82.8213 65.902L82.0617 66.2519C82.8894 64.8358 82.6853 63.0017 81.4777 61.7994C80.1357 60.4633 77.9524 60.3766 76.5094 61.602L67.0243 69.6538L61.7517 71.4841C56.1815 73.3982 52.8326 78.4585 52.067 86.1192C52.0618 86.1663 52.0595 86.2142 52.0595 86.262V88.2344C50.9507 88.6269 50.1544 89.6857 50.1544 90.9276V95.1437C50.1544 96.7183 51.4359 97.9991 53.0098 97.9991H69.5762C71.1508 97.9991 72.4316 96.7183 72.4316 95.1437V90.9276C72.4316 89.8801 71.8648 88.9627 71.0229 88.4655C71.4057 86.4721 71.9553 85.7282 72.5317 85.1046C74.7785 82.6762 78.1678 80.9513 80.5215 79.8641C83.3731 78.5475 85.9676 76.5736 88.0222 74.1548C88.0626 74.1085 88.0992 74.0591 88.1321 74.0076L94.0605 64.8836C94.1188 64.7939 94.1674 64.6982 94.204 64.598L96.4201 58.5896C96.8119 57.5279 96.7282 56.3481 96.1899 55.3529ZM69.5605 95.1288H53.0255V90.9433H69.5605V95.1288ZM93.727 57.596L91.5662 63.454L85.7762 72.3649C83.9982 74.4367 81.7671 76.1272 79.3184 77.2577C76.7427 78.4473 73.0185 80.3516 70.4248 83.1554C69.4251 84.2358 68.6483 85.5278 68.1765 88.0722H54.9306V86.3353C55.5975 79.8215 58.2062 75.7384 62.6893 74.1982L68.2191 72.2789C68.3874 72.2206 68.5429 72.1316 68.6782 72.0172L78.3674 63.7912C78.6829 63.5243 79.1592 63.543 79.4523 63.8346C79.7566 64.1374 79.7693 64.6242 79.4904 64.9315L75.2735 69.4946C75.2645 69.505 75.2548 69.5155 75.2451 69.526L71.2906 74.024C70.7672 74.6199 70.8255 75.5268 71.4214 76.0502C71.6936 76.2902 72.0316 76.4076 72.3688 76.4076C72.7665 76.4076 73.1635 76.2431 73.4469 75.9201L77.2003 71.6509L84.3189 68.3738C84.5141 68.2833 84.6868 68.1517 84.8236 67.9857L89.4712 62.3834C89.5684 62.2667 89.6462 62.1344 89.7022 61.9923L91.7299 56.8356C91.9221 56.3466 92.4529 56.067 92.9644 56.1851C93.3741 56.2793 93.579 56.5597 93.6649 56.7182C93.7509 56.8767 93.872 57.2019 93.727 57.596Z" fill="black"/>
<path d="M72.9871 25.6723L76.1303 28.1815L75.0626 32.059C74.8361 32.8815 75.1359 33.7361 75.8253 34.2378C76.1834 34.4972 76.5991 34.628 77.0163 34.628C77.4029 34.628 77.7902 34.5159 78.1326 34.2901L81.4904 32.077L84.849 34.2901C85.5608 34.7589 86.4662 34.7387 87.1564 34.2378C87.8457 33.7368 88.1455 32.8815 87.919 32.059L86.8513 28.1815L89.9946 25.6716C90.6607 25.14 90.9209 24.2727 90.6577 23.4614C90.3938 22.651 89.6731 22.1022 88.8222 22.0625L84.8042 21.8801L83.388 18.1148C83.0882 17.317 82.3435 16.8011 81.4904 16.8011C80.6381 16.8011 79.8934 17.317 79.5928 18.1148L78.1775 21.8801L74.1594 22.0625C73.3078 22.1014 72.587 22.651 72.3239 23.4614C72.0607 24.2727 72.3209 25.14 72.9871 25.6723ZM79.2541 24.7048C79.8276 24.6787 80.33 24.3138 80.5319 23.7762L81.4912 21.2266L82.4497 23.7762C82.6516 24.3138 83.1548 24.6787 83.7282 24.7048L86.4491 24.8289L84.3204 26.5284C83.8718 26.8866 83.6796 27.478 83.8322 28.0313L84.5552 30.6579L82.2807 29.1588C82.0415 29.001 81.7663 28.9218 81.4912 28.9218C81.216 28.9218 80.9401 29.001 80.7009 29.1588L78.4264 30.6579L79.1494 28.0313C79.302 27.478 79.1098 26.8866 78.6612 26.5284L76.5326 24.8289L79.2541 24.7048Z" fill="black"/>
<path d="M8.20062 25.6723L11.3439 28.1815L10.2762 32.0598C10.0496 32.8815 10.3495 33.7368 11.0388 34.2378C11.7289 34.7387 12.6344 34.7589 13.3462 34.2901L16.7047 32.077L20.0626 34.2901C20.405 34.5159 20.7923 34.628 21.1789 34.628C21.5961 34.628 22.0118 34.4972 22.3699 34.2378C23.06 33.7361 23.3591 32.8815 23.1326 32.059L22.0649 28.1815L25.2081 25.6723C25.8743 25.14 26.1345 24.2727 25.8713 23.4614C25.6081 22.651 24.8874 22.1022 24.0357 22.0625L20.0177 21.8801L18.6024 18.1148C18.3018 17.317 17.5571 16.8011 16.7047 16.8011C15.8516 16.8011 15.1069 17.317 14.8071 18.1148L13.3918 21.8801L9.37373 22.0625C8.52137 22.1014 7.80136 22.651 7.53817 23.4614C7.27424 24.2727 7.53444 25.14 8.20062 25.6723ZM14.4669 24.7048C15.0404 24.6787 15.5436 24.3138 15.7455 23.7762L16.7047 21.2266L17.6633 23.7762C17.8651 24.3138 18.3683 24.6787 18.9418 24.7048L21.6626 24.8289L19.534 26.5284C19.0854 26.8866 18.8932 27.478 19.0457 28.0313L19.7687 30.6579L17.4943 29.1588C17.015 28.8425 16.3937 28.8425 15.9144 29.1588L13.64 30.6579L14.363 28.0313C14.5155 27.478 14.3234 26.8866 13.8748 26.5284L11.7461 24.8289L14.4669 24.7048Z" fill="black"/>
<path d="M40.5939 8.87049L43.7371 11.3805L42.6694 15.2579C42.4429 16.0804 42.7427 16.935 43.4321 17.4359C44.1214 17.9369 45.0276 17.9578 45.7394 17.4883L49.098 15.2751L52.4558 17.489C52.7983 17.7148 53.1856 17.827 53.5721 17.827C53.9893 17.827 54.405 17.6961 54.7632 17.4359C55.4533 16.935 55.7523 16.0804 55.5258 15.2579L54.4581 11.3805L57.6014 8.87049C58.2675 8.33889 58.5277 7.47083 58.2646 6.66034C58.0014 5.84911 57.2806 5.30031 56.429 5.26143L52.411 5.07825L50.9949 1.31368C50.695 0.515903 49.9503 3.8147e-06 49.098 3.8147e-06C48.2449 3.8147e-06 47.5002 0.515903 47.2004 1.31368L45.7843 5.07825L41.7662 5.26143C40.9146 5.30031 40.1939 5.84911 39.9307 6.66034C39.6675 7.47083 39.9277 8.33889 40.5939 8.87049ZM46.8609 7.90374C47.4344 7.87757 47.9368 7.51195 48.1387 6.97437L49.098 4.42478L50.0565 6.97437C50.2584 7.51195 50.7616 7.87757 51.335 7.90374L54.0559 8.0271L51.9272 9.72733C51.4786 10.0855 51.2864 10.6761 51.439 11.2302L52.162 13.8568L49.8883 12.3569C49.6483 12.1992 49.3731 12.1199 49.098 12.1199C48.8228 12.1199 48.5477 12.1992 48.3077 12.3569L46.0332 13.8568L46.7563 11.2302C46.9088 10.6761 46.7166 10.0855 46.268 9.72733L44.1394 8.0271L46.8609 7.90374Z" fill="black"/>
<path d="M73.3273 45.5995C73.3273 32.2392 62.4576 21.3694 49.098 21.3694C35.7377 21.3694 24.8679 32.2392 24.8679 45.5995C24.8679 58.9591 35.7377 69.8288 49.098 69.8288C62.4576 69.8288 73.3273 58.9591 73.3273 45.5995ZM49.098 66.9578C37.3205 66.9578 27.739 57.3762 27.739 45.5995C27.739 33.822 37.3205 24.2405 49.098 24.2405C60.8747 24.2405 70.4563 33.822 70.4563 45.5995C70.4563 57.3762 60.8747 66.9578 49.098 66.9578Z" fill="black"/>
<path d="M31.4946 44.1453C32.2759 44.2731 33.0153 43.743 33.1439 42.9602C33.757 39.2233 35.6883 35.7982 38.5818 33.3181C41.506 30.8119 45.2407 29.4316 49.0979 29.4316C52.9545 29.4316 56.6899 30.8119 59.6133 33.3181C62.5069 35.7982 64.4381 39.2233 65.0512 42.9602C65.1671 43.6645 65.7757 44.1639 66.4658 44.1639C66.5436 44.1639 66.6221 44.158 66.7006 44.1445C67.4827 44.0167 68.0128 43.2779 67.8842 42.4959C67.1619 38.0913 64.8882 34.0583 61.4825 31.1386C58.038 28.186 53.6394 26.5606 49.0979 26.5606C44.5558 26.5606 40.1572 28.186 36.7134 31.1386C33.3069 34.0583 31.0332 38.0913 30.311 42.4959C30.1824 43.2779 30.7125 44.0167 31.4946 44.1453Z" fill="black"/>
<path d="M66.7006 47.0537C65.9185 46.9251 65.1798 47.4552 65.0512 48.238C64.4381 51.9757 62.5069 55.4001 59.6133 57.8801C56.6891 60.3863 52.9545 61.7673 49.0979 61.7673C45.2407 61.7673 41.506 60.3863 38.5818 57.8801C35.6883 55.4001 33.757 51.9757 33.1439 48.238C33.0153 47.4559 32.2766 46.9251 31.4946 47.0537C30.7125 47.1823 30.1824 47.9203 30.311 48.7023C31.0332 53.1069 33.3069 57.1399 36.7134 60.0596C40.1572 63.0122 44.5558 64.6377 49.0979 64.6377C53.6394 64.6377 58.038 63.0122 61.4825 60.0596C64.8882 57.1399 67.1619 53.1069 67.8842 48.7023C68.0128 47.9203 67.4827 47.1823 66.7006 47.0537Z" fill="black"/>
<g filter="url(#filter0_d)">
<path d="M46.2825 43.5835L50.1484 39.7176L54.0162 43.5852L56.2656 41.3358L50.1484 35.2188L44.0332 41.334L46.2826 43.5834L46.2825 43.5835ZM40.1953 45.1719L42.4448 42.9221L44.6941 45.1714L42.4446 47.4209L40.1953 45.1719ZM46.2825 46.7605L50.1484 50.6262L54.0161 46.7586L56.2667 49.0069L56.2656 49.008L50.1484 55.125L44.0332 49.0098L44.0301 49.0066L46.2827 46.7602L46.2825 46.7605ZM55.6027 45.1728L57.8522 42.9233L60.1016 45.1727L57.8522 47.4222L55.6027 45.1728Z" fill="white"/>
<path d="M52.4299 45.1707H52.4309L50.1485 42.8882L48.4615 44.5747L48.2676 44.7686L47.8679 45.1684L47.8647 45.1715L47.8679 45.1747L50.1485 47.4556L52.431 45.1731L52.4321 45.1718L52.4301 45.1707" fill="white"/>
</g>
<defs>
<filter id="filter0_d" x="36.1953" y="35.2188" width="27.9062" height="27.9062" filterUnits="userSpaceOnUse" color-interpolation-filters="sRGB">
<feFlood flood-opacity="0" result="BackgroundImageFix"/>
<feColorMatrix in="SourceAlpha" type="matrix" values="0 0 0 0 0 0 0 0 0 0 0 0 0 0 0 0 0 0 127 0"/>
<feOffset dy="4"/>
<feGaussianBlur stdDeviation="2"/>
<feColorMatrix type="matrix" values="0 0 0 0 0 0 0 0 0 0 0 0 0 0 0 0 0 0 0.25 0"/>
<feBlend mode="normal" in2="BackgroundImageFix" result="effect1_dropShadow"/>
<feBlend mode="normal" in="SourceGraphic" in2="effect1_dropShadow" result="shape"/>
</filter>
</defs>
</svg>
