<svg width="56" height="56" viewBox="0 0 56 56" fill="none" xmlns="http://www.w3.org/2000/svg">
<path d="M0.810547 27.5029H54.5196V43.7129H0.810547V27.5029Z" fill="#BE00FB"/>
<path d="M51.2775 27.5029H54.5195V43.7129H51.2775V27.5029Z" fill="#D141FF"/>
<path d="M0.810547 24.2609H54.5196V27.5029H0.810547V24.2609Z" fill="#BE00FB"/>
<path d="M51.2775 24.2609H54.5195V27.5029H51.2775V24.2609Z" fill="#D141FF"/>
<path d="M12.8599 43.2266H9.61792V15.3454C9.61792 14.4502 10.3437 13.7244 11.2389 13.7244C12.1341 13.7244 12.8599 14.4502 12.8599 15.3454V43.2266Z" fill="#F1F1F1"/>
<path d="M25.3956 43.2266H22.1536V15.3454C22.1536 14.4502 22.8793 13.7244 23.7746 13.7244C24.6698 13.7244 25.3956 14.4502 25.3956 15.3454V43.2266Z" fill="#F1F1F1"/>
<path d="M54.5196 37.3369C52.2814 37.3369 52.2814 39.2109 50.0431 39.2109C47.8048 39.2109 47.805 37.3369 45.5667 37.3369C43.3287 37.3369 43.3287 39.2109 41.0909 39.2109C38.8529 39.2109 38.8529 37.3369 36.615 37.3369C34.3772 37.3369 34.3772 39.2109 32.1392 39.2109C29.9014 39.2109 29.9014 37.3369 27.6635 37.3369C25.426 37.3369 25.426 39.2109 23.1884 39.2109C20.9506 39.2109 20.9506 37.3369 18.7128 37.3369C16.475 37.3369 16.475 39.2109 14.237 39.2109C11.9992 39.2109 11.9992 37.3369 9.76136 37.3369C7.52363 37.3369 7.52363 39.2109 5.2859 39.2109C3.04817 39.2109 3.04817 37.3369 0.810547 37.3369V48.4678C0.810547 51.8101 3.51999 54.5195 6.86227 54.5195H48.4678C51.8101 54.5195 54.5196 51.8101 54.5196 48.4678V37.3369Z" fill="#B9F5FF"/>
<path d="M28.8972 39.211C29.6215 39.211 30.111 39.0142 30.5182 38.7485C29.6674 38.1936 29.177 37.337 27.6635 37.337C26.9391 37.337 26.4498 37.5338 26.0426 37.7994C26.8933 38.3543 27.3838 39.211 28.8972 39.211Z" fill="#8AEEFF"/>
<path d="M37.8489 39.211C38.5733 39.211 39.0627 39.0142 39.4699 38.7486C38.619 38.1937 38.1286 37.337 36.615 37.337C35.8906 37.337 35.4013 37.5338 34.994 37.7994C35.8449 38.3542 36.3353 39.211 37.8489 39.211Z" fill="#8AEEFF"/>
<path d="M19.9465 39.211C20.6708 39.211 21.1602 39.0142 21.5674 38.7485C20.7167 38.1936 20.2262 37.337 18.7128 37.337C17.9884 37.337 17.499 37.5338 17.0918 37.7994C17.9427 38.3543 18.4331 39.211 19.9465 39.211Z" fill="#8AEEFF"/>
<path d="M46.8011 39.211C47.5255 39.211 48.0149 39.0143 48.4221 38.7488C47.571 38.1938 47.0806 37.337 45.5667 37.337C44.8423 37.337 44.353 37.5338 43.9458 37.7993C44.7969 38.3542 45.2873 39.211 46.8011 39.211Z" fill="#8AEEFF"/>
<path d="M51.2775 38.9624V48.4678C51.2775 51.8101 48.5681 54.5195 45.2258 54.5195H48.4678C51.8101 54.5195 54.5195 51.8101 54.5195 48.4678V37.337C52.7918 37.337 52.397 38.4531 51.2775 38.9624Z" fill="#8AEEFF"/>
<path d="M2.04391 39.2109C2.76828 39.2109 3.25771 39.0141 3.6649 38.7485C2.81421 38.1936 2.3238 37.3369 0.810547 37.3369V38.9628C1.14101 39.113 1.53405 39.2109 2.04391 39.2109Z" fill="#8AEEFF"/>
<path d="M10.9951 39.211C11.7194 39.211 12.2089 39.0142 12.6161 38.7485C11.7653 38.1936 11.2748 37.337 9.76138 37.337C9.03701 37.337 8.54768 37.5338 8.14038 37.7994C8.99119 38.3543 9.48159 39.211 10.9951 39.211Z" fill="#8AEEFF"/>
<path d="M12.8599 16.6963H22.1536V19.9383H12.8599V16.6963Z" fill="#D0D0D0"/>
<path d="M12.8599 24.2609H22.1536V27.5029H12.8599V24.2609Z" fill="#D0D0D0"/>
<path d="M12.8599 31.8255H22.1536V35.0675H12.8599V31.8255Z" fill="#D0D0D0"/>
<path d="M43.0104 15.0212C45.8752 15.0212 48.1976 12.6988 48.1976 9.83404C48.1976 6.96923 45.8752 4.64685 43.0104 4.64685C40.1456 4.64685 37.8232 6.96923 37.8232 9.83404C37.8232 12.6988 40.1456 15.0212 43.0104 15.0212Z" fill="#FFD54F"/>
<path d="M43.0104 4.64685C42.4441 4.64685 41.8996 4.73882 41.3894 4.90664C43.4601 5.58746 44.9556 7.53557 44.9556 9.83404C44.9556 12.1325 43.4601 14.0806 41.3894 14.7614C41.8996 14.9292 42.4441 15.0212 43.0104 15.0212C45.8752 15.0212 48.1976 12.6989 48.1976 9.83404C48.1976 6.9692 45.8752 4.64685 43.0104 4.64685Z" fill="#FFC128"/>
<path d="M54.5195 23.4504H51.9799C51.5323 23.4504 51.1694 23.8133 51.1694 24.2609C51.1694 24.7085 51.5323 25.0714 51.9799 25.0714H53.709V26.6924H26.2061V25.0714H48.1976C48.6452 25.0714 49.0081 24.7085 49.0081 24.2609C49.0081 23.8133 48.6452 23.4504 48.1976 23.4504H26.2061V15.3454C26.2061 14.6952 25.9526 14.0845 25.4943 13.6278C25.0355 13.1675 24.4248 12.9139 23.7746 12.9139C22.4338 12.9139 21.3431 14.0047 21.3431 15.3454V15.8858H13.6704V15.3454C13.6704 14.6952 13.4169 14.0845 12.9586 13.6278C12.4998 13.1675 11.8891 12.9139 11.2389 12.9139C9.89813 12.9139 8.80741 14.0047 8.80741 15.3454V17.2878C8.80741 17.7354 9.1703 18.0983 9.61791 18.0983C10.0655 18.0983 10.4284 17.7354 10.4284 17.2878V15.3454C10.4284 14.8985 10.7919 14.5349 11.2389 14.5349C11.455 14.5349 11.658 14.6191 11.8123 14.7741C11.9652 14.9264 12.0494 15.1293 12.0494 15.3454V37.2761C11.6383 36.9728 11.1324 36.6908 10.4284 36.5785V20.7016C10.4284 20.254 10.0655 19.8911 9.61791 19.8911C9.1703 19.8911 8.80741 20.254 8.80741 20.7016V23.4504H0.810498C0.362887 23.4504 0 23.8133 0 24.2609V48.4678C0 52.2516 3.07838 55.33 6.86222 55.33H48.4678C52.2516 55.33 55.33 52.2516 55.33 48.4678V24.2609C55.33 23.8133 54.9671 23.4504 54.5195 23.4504ZM22.9641 15.3454C22.9641 14.8986 23.3276 14.5349 23.7746 14.5349C23.9907 14.5349 24.1937 14.6191 24.348 14.7741C24.5009 14.9264 24.5851 15.1293 24.5851 15.3454V37.9137C24.2053 38.2068 23.8353 38.4005 23.1883 38.4005C23.1092 38.4005 23.0354 38.3968 22.9641 38.3911V15.3454ZM21.3431 26.6924H13.6704V25.0714H21.3431V26.6924ZM21.3431 28.3134V31.0151H13.6704V28.3134H21.3431ZM13.6704 32.6361H21.3431V34.2571H13.6704V32.6361ZM21.3431 23.4504H13.6704V20.7488H21.3431V23.4504ZM13.6704 35.8781H21.3431V37.5461C20.7644 37.0668 20.0276 36.5265 18.7128 36.5265C17.2993 36.5265 16.5537 37.1509 15.9545 37.6525C15.436 38.0867 15.0614 38.4004 14.237 38.4004C14.0205 38.4004 13.8356 38.3783 13.6704 38.3385V35.8781ZM21.3431 17.5068V19.1278H13.6704V17.5068H21.3431ZM1.621 28.3134H8.80741V36.6348C7.97984 36.8353 7.45053 37.2781 7.00324 37.6526C6.48485 38.0868 6.11018 38.4004 5.28585 38.4004C4.46163 38.4004 4.08696 38.0867 3.56857 37.6526C3.09621 37.257 2.53113 36.7863 1.621 36.6045V28.3134ZM1.621 25.0714H8.80741V26.6924H1.621V25.0714ZM53.709 48.4678C53.709 51.3578 51.3578 53.709 48.4678 53.709H6.86222C3.9722 53.709 1.621 51.3578 1.621 48.4678V38.2853C1.95708 38.4173 2.21644 38.6346 2.52778 38.8953C3.12679 39.397 3.87245 40.0214 5.28585 40.0214C6.69925 40.0214 7.44491 39.397 8.04392 38.8954C8.56232 38.4612 8.93698 38.1474 9.76132 38.1474C10.5856 38.1474 10.9603 38.4612 11.4788 38.8954C11.7562 39.1277 12.0662 39.3857 12.4581 39.5964C12.471 39.6037 12.484 39.6106 12.4973 39.6173C12.9452 39.851 13.4998 40.0215 14.2371 40.0215C15.6506 40.0215 16.3962 39.3971 16.9953 38.8955C17.5138 38.4613 17.8884 38.1476 18.7129 38.1476C19.5372 38.1476 19.9119 38.4613 20.4304 38.8955C20.8113 39.2145 21.2522 39.5824 21.8855 39.8085C21.8981 39.813 21.9106 39.8175 21.9234 39.8213C22.2781 39.9433 22.6912 40.0215 23.1885 40.0215C24.6019 40.0215 25.3474 39.3971 25.9464 38.8954C26.4648 38.4612 26.8394 38.1476 27.6636 38.1476C28.4879 38.1476 28.8626 38.4613 29.3811 38.8955C29.9802 39.3972 30.7259 40.0215 32.1393 40.0215C32.3578 40.0215 32.5702 40.0063 32.7708 39.9764C33.2136 39.9101 33.5187 39.4975 33.4525 39.0549C33.3863 38.6122 32.9733 38.3073 32.531 38.3732C32.4094 38.3914 32.2777 38.4005 32.1393 38.4005C31.3149 38.4005 30.9403 38.0868 30.4218 37.6526C29.8227 37.1509 29.077 36.5266 27.6636 36.5266C27.0737 36.5266 26.6013 36.6361 26.2062 36.7994V28.3134H53.709V36.6044C52.7987 36.7862 52.2335 37.2569 51.761 37.6525C51.2424 38.0867 50.8677 38.4004 50.0432 38.4004C49.2186 38.4004 48.8439 38.0867 48.3254 37.6525C47.7261 37.1508 46.9805 36.5265 45.5669 36.5265C44.1533 36.5265 43.4078 37.1509 42.8087 37.6525C42.2902 38.0867 41.9155 38.4004 41.0911 38.4004C40.2666 38.4004 39.892 38.0867 39.3733 37.6525C38.7742 37.1508 38.0286 36.5265 36.6151 36.5265C36.1745 36.5265 35.7783 36.5856 35.4041 36.7072C34.9784 36.8457 34.7455 37.3029 34.8839 37.7287C35.0224 38.1544 35.4796 38.3874 35.9054 38.2488C36.1151 38.1806 36.3473 38.1474 36.6151 38.1474C37.4395 38.1474 37.8142 38.4612 38.3327 38.8954C38.9318 39.3971 39.6774 40.0214 41.091 40.0214C42.5045 40.0214 43.25 39.397 43.8492 38.8954C44.3677 38.4612 44.7423 38.1474 45.5667 38.1474C46.3913 38.1474 46.7661 38.4612 47.2846 38.8954C47.8838 39.397 48.6295 40.0214 50.0431 40.0214C51.4567 40.0214 52.2023 39.397 52.8016 38.8954C53.113 38.6345 53.3726 38.4172 53.7089 38.2852V48.4678H53.709Z" fill="black"/>
<path d="M43.0104 3.83636C39.7032 3.83636 37.0127 6.52689 37.0127 9.83405C37.0127 13.1412 39.7032 15.8317 43.0104 15.8317C46.3175 15.8317 49.0081 13.1412 49.0081 9.83405C49.0081 6.52689 46.3175 3.83636 43.0104 3.83636ZM43.0104 14.2107C40.597 14.2107 38.6337 12.2474 38.6337 9.83405C38.6337 7.42071 40.597 5.45736 43.0104 5.45736C45.4237 5.45736 47.3871 7.42071 47.3871 9.83405C47.3871 12.2474 45.4237 14.2107 43.0104 14.2107Z" fill="black"/>
<path d="M43.0104 3.13393C43.4581 3.13393 43.8209 2.77104 43.8209 2.32343V0.810498C43.8209 0.362887 43.4581 0 43.0104 0C42.5628 0 42.2 0.362887 42.2 0.810498V2.32343C42.2 2.77104 42.5628 3.13393 43.0104 3.13393Z" fill="black"/>
<path d="M42.2539 17.2366V18.7495C42.2539 19.1971 42.6168 19.56 43.0644 19.56C43.512 19.56 43.8749 19.1971 43.8749 18.7495V17.2366C43.8749 16.789 43.512 16.4261 43.0644 16.4261C42.6168 16.4261 42.2539 16.789 42.2539 17.2366Z" fill="black"/>
<path d="M38.5803 3.72766C38.7304 3.98766 39.0028 4.13301 39.2829 4.13301C39.4204 4.13301 39.5599 4.098 39.6874 4.0243C40.075 3.80049 40.2079 3.30479 39.9841 2.91716L39.2276 1.60696C39.0038 1.21933 38.5079 1.08651 38.1204 1.31032C37.7328 1.53412 37.6 2.02982 37.8238 2.41746L38.5803 3.72766Z" fill="black"/>
<path d="M46.3802 15.5087C45.9926 15.7325 45.8598 16.2282 46.0836 16.6159L46.84 17.9261C46.9901 18.1861 47.2626 18.3314 47.5427 18.3314C47.6801 18.3314 47.8197 18.2964 47.9472 18.2227C48.3348 17.9989 48.4676 17.5032 48.2438 17.1156L47.4874 15.8054C47.2636 15.4176 46.7676 15.2848 46.3802 15.5087Z" fill="black"/>
<path d="M34.8374 5.99713L36.1476 6.7536C36.2752 6.8273 36.4146 6.86231 36.5521 6.86231C36.8322 6.86231 37.1046 6.71696 37.2547 6.45695C37.4785 6.06932 37.3457 5.57362 36.9581 5.34981L35.6479 4.59335C35.2602 4.36944 34.7645 4.50225 34.5407 4.88999C34.3169 5.27762 34.4497 5.77333 34.8374 5.99713Z" fill="black"/>
<path d="M49.0898 14.1634L50.4 14.9199C50.5276 14.9936 50.667 15.0286 50.8044 15.0286C51.0846 15.0286 51.357 14.8832 51.5071 14.6232C51.7309 14.2356 51.5981 13.7399 51.2105 13.5161L49.9003 12.7596C49.5126 12.5357 49.0169 12.6685 48.7931 13.0563C48.5692 13.4439 48.702 13.9396 49.0898 14.1634Z" fill="black"/>
<path d="M34.041 10.5905H35.5539C36.0015 10.5905 36.3644 10.2276 36.3644 9.78001C36.3644 9.3324 36.0015 8.96951 35.5539 8.96951H34.041C33.5934 8.96951 33.2305 9.3324 33.2305 9.78001C33.2305 10.2276 33.5934 10.5905 34.041 10.5905Z" fill="black"/>
<path d="M49.6565 9.72596C49.6565 10.1736 50.0194 10.5365 50.467 10.5365H51.9799C52.4275 10.5365 52.7904 10.1736 52.7904 9.72596C52.7904 9.27835 52.4275 8.91547 51.9799 8.91547H50.467C50.0194 8.91547 49.6565 9.27835 49.6565 9.72596Z" fill="black"/>
<path d="M36.1476 12.8064L34.8374 13.5629C34.4497 13.7867 34.3169 14.2824 34.5407 14.67C34.6908 14.93 34.9633 15.0754 35.2434 15.0754C35.3808 15.0754 35.5203 15.0402 35.6479 14.9666L36.9581 14.2102C37.3457 13.9864 37.4785 13.4907 37.2547 13.103C37.0309 12.7154 36.535 12.5827 36.1476 12.8064Z" fill="black"/>
<path d="M49.4417 6.81552C49.5792 6.81552 49.7187 6.7804 49.8462 6.70681L51.1564 5.95034C51.5441 5.72654 51.6769 5.23084 51.4531 4.8432C51.2293 4.45546 50.7333 4.32286 50.3459 4.54656L49.0357 5.30303C48.6481 5.52683 48.5153 6.02253 48.7391 6.41017C48.8892 6.67017 49.1616 6.81552 49.4417 6.81552Z" fill="black"/>
<path d="M38.5803 15.8324L37.8238 17.1426C37.6 17.5302 37.7328 18.0259 38.1204 18.2497C38.2481 18.3234 38.3875 18.3584 38.5249 18.3584C38.8051 18.3584 39.0775 18.2131 39.2276 17.9531L39.9841 16.6429C40.2079 16.2552 40.075 15.7595 39.6874 15.5357C39.2997 15.3117 38.8041 15.4446 38.5803 15.8324Z" fill="black"/>
<path d="M46.2867 3.99727C46.4143 4.07097 46.5537 4.10598 46.6912 4.10598C46.9713 4.10598 47.2437 3.96064 47.3938 3.70063L48.1503 2.39043C48.3741 2.0028 48.2413 1.5071 47.8536 1.28329C47.466 1.05938 46.9703 1.19219 46.7465 1.57993L45.99 2.89013C45.7661 3.27776 45.8989 3.77346 46.2867 3.99727Z" fill="black"/>
<path d="M12.968 42.8483H9.72603C9.27841 42.8483 8.91553 43.2112 8.91553 43.6588C8.91553 44.1064 9.27841 44.4693 9.72603 44.4693H12.968C13.4156 44.4693 13.7785 44.1064 13.7785 43.6588C13.7785 43.2112 13.4156 42.8483 12.968 42.8483Z" fill="black"/>
<path d="M45.604 47.6032H41.2813C40.8337 47.6032 40.4708 47.9661 40.4708 48.4137C40.4708 48.8614 40.8337 49.2242 41.2813 49.2242H45.604C46.0516 49.2242 46.4145 48.8614 46.4145 48.4137C46.4145 47.9661 46.0516 47.6032 45.604 47.6032Z" fill="black"/>
<path d="M36.3103 44.4693H27.2327C26.7851 44.4693 26.4222 44.8322 26.4222 45.2798C26.4222 45.7274 26.7851 46.0903 27.2327 46.0903H36.3103C36.7579 46.0903 37.1208 45.7274 37.1208 45.2798C37.1208 44.8322 36.7579 44.4693 36.3103 44.4693Z" fill="black"/>
<path d="M21.6133 46.8468H15.5616C15.114 46.8468 14.7511 47.2097 14.7511 47.6573C14.7511 48.1049 15.114 48.4678 15.5616 48.4678H21.6133C22.0609 48.4678 22.4238 48.1049 22.4238 47.6573C22.4238 47.2097 22.0609 46.8468 21.6133 46.8468Z" fill="black"/>
<path d="M30.3267 43.2006C30.3267 45.9382 28.1074 48.1576 25.3697 48.1576C22.6319 48.1576 20.4126 45.9382 20.4126 43.2006C20.4126 40.4629 22.6319 38.2434 25.3697 38.2434C28.1074 38.2434 30.3267 40.4629 30.3267 43.2006Z" fill="#FF8533"/>
<path d="M29.1978 43.2006C29.1978 45.3149 27.4838 47.0286 25.3697 47.0286C23.2555 47.0286 21.5415 45.3149 21.5415 43.2006C21.5415 41.0863 23.2555 39.3724 25.3697 39.3724C27.4838 39.3724 29.1978 41.0863 29.1978 43.2006Z" fill="#FCDF6C"/>
<path d="M25.3697 39.3724C25.0068 39.3724 24.6559 39.4228 24.3234 39.5171C25.929 39.9722 27.1053 41.4491 27.1053 43.2006C27.1053 44.9521 25.929 46.4288 24.3234 46.8839C24.6559 46.9782 25.0068 47.0286 25.3697 47.0286C27.484 47.0286 29.1977 45.3147 29.1977 43.2006C29.1977 41.0863 27.484 39.3724 25.3697 39.3724Z" fill="#F4B425"/>
<path d="M30.6388 43.2006C30.6388 40.2952 28.275 37.9313 25.3697 37.9313C22.4642 37.9313 20.1003 40.2952 20.1003 43.2006C20.1003 46.1059 22.4642 48.4698 25.3697 48.4698C28.275 48.4698 30.6388 46.1059 30.6388 43.2006ZM25.3697 47.8454C22.8084 47.8454 20.7247 45.7617 20.7247 43.2006C20.7247 40.6394 22.8084 38.5557 25.3697 38.5557C27.9308 38.5557 30.0145 40.6394 30.0145 43.2006C30.0145 45.7617 27.9308 47.8454 25.3697 47.8454Z" fill="black"/>
<path d="M21.5415 42.8843C21.7114 42.9121 21.8722 42.7969 21.9002 42.6266C22.0335 41.8139 22.4535 41.0691 23.0828 40.5297C23.7187 39.9847 24.5309 39.6846 25.3697 39.6846C26.2084 39.6846 27.0207 39.9847 27.6565 40.5297C28.2857 41.0691 28.7057 41.8139 28.8391 42.6266C28.8643 42.7798 28.9966 42.8884 29.1467 42.8884C29.1636 42.8884 29.1807 42.8871 29.1978 42.8842C29.3678 42.8564 29.4831 42.6957 29.4551 42.5256C29.2981 41.5678 28.8036 40.6907 28.063 40.0558C27.3139 39.4137 26.3573 39.0602 25.3697 39.0602C24.3819 39.0602 23.4253 39.4137 22.6764 40.0558C21.9356 40.6907 21.4412 41.5678 21.2841 42.5256C21.2561 42.6957 21.3714 42.8564 21.5415 42.8843Z" fill="black"/>
<path d="M29.1978 43.5168C29.0277 43.4889 28.867 43.6042 28.8391 43.7744C28.7057 44.5872 28.2857 45.3319 27.6565 45.8713C27.0206 46.4163 26.2084 46.7166 25.3697 46.7166C24.5309 46.7166 23.7187 46.4163 23.0828 45.8713C22.4535 45.3319 22.0335 44.5872 21.9002 43.7744C21.8722 43.6043 21.7116 43.4889 21.5415 43.5168C21.3714 43.5448 21.2561 43.7053 21.2841 43.8754C21.4412 44.8332 21.9356 45.7103 22.6764 46.3452C23.4253 46.9873 24.3819 47.3408 25.3697 47.3408C26.3573 47.3408 27.3139 46.9873 28.063 46.3452C28.8036 45.7103 29.2981 44.8332 29.4551 43.8754C29.4831 43.7053 29.3678 43.5448 29.1978 43.5168Z" fill="black"/>
<g filter="url(#filter0_d)">
<path d="M24.7574 42.7622L25.5981 41.9215L26.4392 42.7626L26.9284 42.2734L25.5981 40.9431L24.2682 42.273L24.7574 42.7622L24.7574 42.7622ZM23.4336 43.1076L23.9228 42.6184L24.412 43.1075L23.9228 43.5967L23.4336 43.1076ZM24.7574 43.4531L25.5981 44.2938L26.4392 43.4527L26.9287 43.9416L26.9284 43.9419L25.5981 45.2721L24.2682 43.9423L24.2675 43.9416L24.7574 43.453L24.7574 43.4531ZM26.7843 43.1078L27.2735 42.6186L27.7626 43.1078L27.2734 43.597L26.7843 43.1078Z" fill="white"/>
<path d="M26.0942 43.1074H26.0944L25.5981 42.611L25.2312 42.9778L25.1891 43.02L25.1021 43.1069L25.1014 43.1076L25.1021 43.1083L25.5981 43.6043L26.0945 43.1079L26.0947 43.1076L26.0943 43.1074" fill="white"/>
</g>
<path d="M23.8844 37.9054C23.8844 41.6807 20.8239 44.7412 17.0486 44.7412C13.273 44.7412 10.2125 41.6807 10.2125 37.9054C10.2125 34.13 13.273 31.0693 17.0486 31.0693C20.8239 31.0693 23.8844 34.13 23.8844 37.9054Z" fill="#FF8533"/>
<path d="M22.3275 37.9054C22.3275 40.821 19.9639 43.1844 17.0485 43.1844C14.1329 43.1844 11.7693 40.821 11.7693 37.9054C11.7693 34.9898 14.1329 32.6262 17.0485 32.6262C19.9639 32.6262 22.3275 34.9898 22.3275 37.9054Z" fill="#FCDF6C"/>
<path d="M17.0485 32.6262C16.548 32.6262 16.0641 32.6957 15.6056 32.8257C17.8198 33.4533 19.4419 35.49 19.4419 37.9054C19.4419 40.3208 17.8198 42.3572 15.6056 42.9848C16.0641 43.1149 16.548 43.1844 17.0485 43.1844C19.9641 43.1844 22.3275 40.8208 22.3275 37.9054C22.3275 34.9898 19.9641 32.6262 17.0485 32.6262Z" fill="#F4B425"/>
<path d="M24.3149 37.9054C24.3149 33.8987 21.0551 30.6389 17.0486 30.6389C13.0418 30.6389 9.78198 33.8987 9.78198 37.9054C9.78198 41.9119 13.0418 45.1718 17.0486 45.1718C21.0551 45.1718 24.3149 41.9119 24.3149 37.9054ZM17.0486 44.3107C13.5165 44.3107 10.643 41.4372 10.643 37.9054C10.643 34.3734 13.5165 31.4999 17.0486 31.4999C20.5804 31.4999 23.4539 34.3734 23.4539 37.9054C23.4539 41.4372 20.5804 44.3107 17.0486 44.3107Z" fill="black"/>
<path d="M11.7693 37.4693C12.0036 37.5076 12.2254 37.3486 12.2639 37.1139C12.4478 35.9932 13.027 34.966 13.8948 34.2222C14.7717 33.4706 15.8917 33.0567 17.0485 33.0567C18.2051 33.0567 19.3253 33.4706 20.2021 34.2222C21.0698 34.966 21.649 35.9932 21.8329 37.1139C21.8676 37.3251 22.0502 37.4749 22.2571 37.4749C22.2804 37.4749 22.304 37.4731 22.3275 37.4691C22.5621 37.4307 22.7211 37.2092 22.6825 36.9746C22.4659 35.6537 21.784 34.4442 20.7626 33.5686C19.7296 32.6831 18.4105 32.1956 17.0485 32.1956C15.6863 32.1956 14.3672 32.6831 13.3344 33.5686C12.3128 34.4442 11.6309 35.6537 11.4143 36.9746C11.3758 37.2092 11.5347 37.4307 11.7693 37.4693Z" fill="black"/>
<path d="M22.3275 38.3415C22.093 38.303 21.8715 38.4619 21.8329 38.6967C21.649 39.8176 21.0698 40.8446 20.2021 41.5884C19.3251 42.34 18.2051 42.7541 17.0485 42.7541C15.8917 42.7541 14.7717 42.34 13.8948 41.5884C13.027 40.8446 12.4478 39.8176 12.2639 38.6967C12.2254 38.4622 12.0038 38.303 11.7693 38.3415C11.5347 38.3801 11.3758 38.6014 11.4143 38.8359C11.6309 40.1569 12.3128 41.3664 13.3344 42.242C14.3672 43.1275 15.6863 43.6149 17.0485 43.6149C18.4105 43.6149 19.7296 43.1275 20.7626 42.242C21.784 41.3664 22.4659 40.1569 22.6825 38.8359C22.7211 38.6014 22.5621 38.3801 22.3275 38.3415Z" fill="black"/>
<g filter="url(#filter1_d)">
<path d="M16.2042 37.3008L17.3636 36.1414L18.5235 37.3013L19.1981 36.6267L17.3636 34.7922L15.5297 36.6262L16.2042 37.3008L16.2042 37.3008ZM14.3787 37.7772L15.0533 37.1025L15.7278 37.777L15.0532 38.4516L14.3787 37.7772ZM16.2042 38.2536L17.3636 39.4129L18.5235 38.253L19.1985 38.9273L19.1981 38.9276L17.3636 40.7621L15.5297 38.9282L15.5287 38.9272L16.2043 38.2535L16.2042 38.2536ZM18.9993 37.7775L19.6739 37.1028L20.3485 37.7774L19.6739 38.452L18.9993 37.7775Z" fill="white"/>
<path d="M18.0478 37.7768H18.0481L17.3636 37.0923L16.8577 37.5981L16.7995 37.6563L16.6797 37.7762L16.6787 37.7771L16.6797 37.7781L17.3636 38.4621L18.0481 37.7776L18.0485 37.7772L18.0478 37.7768" fill="white"/>
</g>
<path d="M46.6168 42.2801C46.6168 47.1222 42.6915 51.0475 37.8494 51.0475C33.007 51.0475 29.0817 47.1222 29.0817 42.2801C29.0817 37.438 33.007 33.5124 37.8494 33.5124C42.6915 33.5124 46.6168 37.438 46.6168 42.2801Z" fill="#FF8533"/>
<path d="M44.62 42.2801C44.62 46.0196 41.5886 49.0508 37.8493 49.0508C34.1098 49.0508 31.0784 46.0196 31.0784 42.2801C31.0784 38.5406 34.1098 35.5091 37.8493 35.5091C41.5886 35.5091 44.62 38.5406 44.62 42.2801Z" fill="#FCDF6C"/>
<path d="M37.8494 35.5091C37.2075 35.5091 36.5869 35.5983 35.9988 35.7651C38.8387 36.57 40.9191 39.1822 40.9191 42.2801C40.9191 45.378 38.8387 47.9899 35.9988 48.7948C36.5869 48.9616 37.2075 49.0508 37.8494 49.0508C41.5889 49.0508 44.6201 46.0193 44.6201 42.2801C44.6201 38.5406 41.5889 35.5091 37.8494 35.5091Z" fill="#F4B425"/>
<path d="M47.169 42.2801C47.169 37.1412 42.988 32.9603 37.8494 32.9603C32.7105 32.9603 28.5295 37.1412 28.5295 42.2801C28.5295 47.4187 32.7105 51.5997 37.8494 51.5997C42.988 51.5997 47.169 47.4187 47.169 42.2801ZM37.8494 50.4954C33.3193 50.4954 29.6339 46.8099 29.6339 42.2801C29.6339 37.75 33.3193 34.0646 37.8494 34.0646C42.3792 34.0646 46.0646 37.75 46.0646 42.2801C46.0646 46.8099 42.3792 50.4954 37.8494 50.4954Z" fill="black"/>
<path d="M31.0784 41.7207C31.3789 41.7699 31.6633 41.566 31.7128 41.2649C31.9486 39.8275 32.6915 38.5101 33.8044 37.5562C34.9292 36.5922 36.3657 36.0613 37.8493 36.0613C39.3327 36.0613 40.7695 36.5922 41.894 37.5562C43.0069 38.5101 43.7498 39.8275 43.9856 41.2649C44.0302 41.5358 44.2643 41.7279 44.5297 41.7279C44.5596 41.7279 44.5898 41.7256 44.62 41.7204C44.9208 41.6713 45.1247 41.3871 45.0753 41.0863C44.7975 39.3921 43.9229 37.8409 42.6129 36.7178C41.288 35.5822 39.5961 34.9569 37.8493 34.9569C36.1022 34.9569 34.4104 35.5822 33.0857 36.7178C31.7755 37.8409 30.9009 39.3921 30.6231 41.0863C30.5737 41.3871 30.7776 41.6713 31.0784 41.7207Z" fill="black"/>
<path d="M44.62 42.8395C44.3192 42.79 44.0351 42.9939 43.9856 43.295C43.7498 44.7327 43.0069 46.0498 41.894 47.0038C40.7692 47.9678 39.3327 48.4989 37.8493 48.4989C36.3657 48.4989 34.9292 47.9678 33.8044 47.0038C32.6915 46.0498 31.9486 44.7327 31.7128 43.295C31.6633 42.9942 31.3792 42.79 31.0784 42.8395C30.7776 42.889 30.5737 43.1728 30.6231 43.4736C30.9009 45.1678 31.7755 46.7191 33.0857 47.8421C34.4104 48.9778 36.1022 49.603 37.8493 49.603C39.5961 49.603 41.288 48.9778 42.6129 47.8421C43.9229 46.7191 44.7975 45.1678 45.0753 43.4736C45.1247 43.1728 44.9208 42.889 44.62 42.8395Z" fill="black"/>
<g filter="url(#filter2_d)">
<path d="M36.7664 41.5047L38.2534 40.0177L39.7411 41.5053L40.6063 40.6401L38.2534 38.2873L35.9013 40.6394L36.7664 41.5046L36.7664 41.5047ZM34.425 42.1156L35.2903 41.2503L36.1555 42.1154L35.2902 42.9807L34.425 42.1156ZM36.7664 42.7267L38.2534 44.2136L39.7411 42.726L40.6068 43.5907L40.6063 43.5912L38.2534 45.944L35.9013 43.5919L35.9 43.5906L36.7665 42.7266L36.7664 42.7267ZM40.3514 42.116L41.2166 41.2508L42.0818 42.1159L41.2166 42.9812L40.3514 42.116Z" fill="white"/>
<path d="M39.1309 42.1152H39.1313L38.2534 41.2372L37.6045 41.8859L37.53 41.9605L37.3762 42.1143L37.375 42.1155L37.3762 42.1167L38.2534 42.994L39.1314 42.1161L39.1318 42.1156L39.131 42.1152" fill="white"/>
</g>
<defs>
<filter id="filter0_d" x="19.4336" y="40.9431" width="12.329" height="12.329" filterUnits="userSpaceOnUse" color-interpolation-filters="sRGB">
<feFlood flood-opacity="0" result="BackgroundImageFix"/>
<feColorMatrix in="SourceAlpha" type="matrix" values="0 0 0 0 0 0 0 0 0 0 0 0 0 0 0 0 0 0 127 0"/>
<feOffset dy="4"/>
<feGaussianBlur stdDeviation="2"/>
<feColorMatrix type="matrix" values="0 0 0 0 0 0 0 0 0 0 0 0 0 0 0 0 0 0 0.25 0"/>
<feBlend mode="normal" in2="BackgroundImageFix" result="effect1_dropShadow"/>
<feBlend mode="normal" in="SourceGraphic" in2="effect1_dropShadow" result="shape"/>
</filter>
<filter id="filter1_d" x="10.3787" y="34.7922" width="13.9699" height="13.9699" filterUnits="userSpaceOnUse" color-interpolation-filters="sRGB">
<feFlood flood-opacity="0" result="BackgroundImageFix"/>
<feColorMatrix in="SourceAlpha" type="matrix" values="0 0 0 0 0 0 0 0 0 0 0 0 0 0 0 0 0 0 127 0"/>
<feOffset dy="4"/>
<feGaussianBlur stdDeviation="2"/>
<feColorMatrix type="matrix" values="0 0 0 0 0 0 0 0 0 0 0 0 0 0 0 0 0 0 0.25 0"/>
<feBlend mode="normal" in2="BackgroundImageFix" result="effect1_dropShadow"/>
<feBlend mode="normal" in="SourceGraphic" in2="effect1_dropShadow" result="shape"/>
</filter>
<filter id="filter2_d" x="30.425" y="38.2873" width="15.6567" height="15.6567" filterUnits="userSpaceOnUse" color-interpolation-filters="sRGB">
<feFlood flood-opacity="0" result="BackgroundImageFix"/>
<feColorMatrix in="SourceAlpha" type="matrix" values="0 0 0 0 0 0 0 0 0 0 0 0 0 0 0 0 0 0 127 0"/>
<feOffset dy="4"/>
<feGaussianBlur stdDeviation="2"/>
<feColorMatrix type="matrix" values="0 0 0 0 0 0 0 0 0 0 0 0 0 0 0 0 0 0 0.25 0"/>
<feBlend mode="normal" in2="BackgroundImageFix" result="effect1_dropShadow"/>
<feBlend mode="normal" in="SourceGraphic" in2="effect1_dropShadow" result="shape"/>
</filter>
</defs>
</svg>
