<svg width="56" height="56" viewBox="0 0 56 56" fill="none" xmlns="http://www.w3.org/2000/svg">
<path d="M4.46307 22.3033H8.03353V49.0817H4.46307V22.3033Z" fill="#BE00FB"/>
<path d="M47.3085 22.3033H50.879V49.0817H47.3085V22.3033Z" fill="#BE00FB"/>
<path d="M52.6642 49.9743V53.5448C52.6642 54.0357 52.2625 54.4374 51.7716 54.4374H3.57047C3.07953 54.4374 2.67786 54.0357 2.67786 53.5448V49.9743C2.67786 49.4834 3.07953 49.0817 3.57047 49.0817H4.46308H8.03354H24.0292C25.3681 49.894 26.6267 50.5188 27.671 50.867C28.7154 50.5188 29.974 49.894 31.3129 49.0817H47.3085H50.879H51.7716C52.2625 49.0817 52.6642 49.4834 52.6642 49.9743Z" fill="#BE00FB"/>
<path d="M53.7175 19.0988L29.2867 1.4072C28.8136 1.068 28.2512 0.880554 27.6711 0.880554C27.0909 0.880554 26.5285 1.068 26.0554 1.4072L1.62458 19.0988C1.16935 19.4291 0.892639 19.9646 0.892639 20.527C0.892639 21.0179 1.08901 21.4642 1.41036 21.7856C1.7317 22.1069 2.178 22.3033 2.66894 22.3033H52.6732C53.655 22.3033 54.4495 21.5089 54.4495 20.527C54.4495 19.9646 54.1728 19.4291 53.7175 19.0988Z" fill="#BE00FB"/>
<path d="M27.6711 16.9476C25.984 17.7867 24.1542 18.2151 22.3154 18.2151C20.4766 18.2151 18.6468 17.7867 16.9597 16.9476L15.1745 18.7328H8.2121L27.6711 4.63846L47.1301 18.7328H40.1677L38.3824 16.9476C35.0084 18.6346 31.0452 18.6346 27.6711 16.9476Z" fill="#BE00FB"/>
<path d="M27.6711 14.2698C29.15 14.2698 30.3489 13.0709 30.3489 11.5919C30.3489 10.113 29.15 8.91409 27.6711 8.91409C26.1921 8.91409 24.9932 10.113 24.9932 11.5919C24.9932 13.0709 26.1921 14.2698 27.6711 14.2698Z" fill="#BE00FB"/>
<path d="M43.7381 22.3033L43.4078 23.0709C41.9082 26.57 41.3459 29.5156 42.8455 33.0146C42.8455 33.0146 43.7381 34.7999 43.7381 35.6389C43.7381 39.2719 36.8114 45.7522 31.3129 49.0817C29.974 49.894 28.7154 50.5188 27.6711 50.8669C26.6267 50.5188 25.3681 49.894 24.0292 49.0817C18.5307 45.7522 11.604 39.2719 11.604 35.6389C11.604 34.7999 12.4966 33.0146 12.4966 33.0146C13.9962 29.5156 13.4339 26.57 11.9343 23.0709L11.604 22.3033L15.1745 18.7328L16.9597 16.9476C18.6467 17.7867 20.4766 18.2151 22.3154 18.2151C24.1542 18.2151 25.984 17.7867 27.6711 16.9476C31.0451 18.6346 35.0083 18.6346 38.3824 16.9476L40.1676 18.7328L43.7381 22.3033Z" fill="#BE00FB"/>
<path d="M27.8126 46.3641C35.5318 46.3641 41.7896 40.1064 41.7896 32.3871C41.7896 24.6679 35.5318 18.4102 27.8126 18.4102C20.0933 18.4102 13.8356 24.6679 13.8356 32.3871C13.8356 40.1064 20.0933 46.3641 27.8126 46.3641Z" fill="#BE00FB"/>
<path d="M29.2285 25.7176C29.2285 24.9625 28.6164 24.3504 27.8613 24.3504C27.1063 24.3504 26.4941 24.9625 26.4941 25.7176V39.3886C26.4941 40.1437 27.1063 40.7558 27.8613 40.7558C28.6164 40.7558 29.2285 40.1437 29.2285 39.3886V25.7176Z" fill="white"/>
<path d="M29.9543 25.0539L32.0473 26.6234V34.8205L29.9543 36.3879V25.0539Z" fill="white"/>
<path d="M29.994 37.4364L33.0527 35.3526V26.972L35.1457 28.5414V36.3899L35.0948 36.424L29.9543 40.0524L29.994 37.4364Z" fill="white"/>
<path d="M25.7287 27.495L22.6701 29.5788V37.9594L20.5771 36.39V28.5415L20.6279 28.5074L25.7684 24.879L25.7287 27.495Z" fill="white"/>
<path d="M25.7688 28.7163L23.6758 30.2858V38.4829L25.7688 40.0504V28.7163Z" fill="white"/>
<path d="M27.671 8.02148C25.7019 8.02148 24.1006 9.62283 24.1006 11.5919C24.1006 13.561 25.7019 15.1624 27.671 15.1624C29.6401 15.1624 31.2415 13.561 31.2415 11.5919C31.2415 9.62283 29.6401 8.02148 27.671 8.02148ZM27.671 13.3772C26.6865 13.3772 25.8858 12.5765 25.8858 11.5919C25.8858 10.6074 26.6865 9.80671 27.671 9.80671C28.6556 9.80671 29.4563 10.6074 29.4563 11.5919C29.4563 12.5765 28.6556 13.3772 27.671 13.3772Z" fill="black"/>
<path d="M52.6767 23.1959C54.1468 23.1959 55.342 21.9998 55.342 20.5306C55.342 19.679 54.9306 18.8721 54.2397 18.3722L29.8106 0.681511C28.5592 -0.22717 26.7811 -0.22717 25.5314 0.681511L1.10149 18.3722C0.411495 18.8712 0 19.679 0 20.5306C0 21.9998 1.19521 23.1959 2.66534 23.1959H3.57045V48.1891C2.5859 48.1891 1.78523 48.9898 1.78523 49.9743V53.5448C1.78523 54.5293 2.5859 55.33 3.57045 55.33H51.7716C52.7561 55.33 53.5568 54.5293 53.5568 53.5448V49.9743C53.5568 48.9898 52.7561 48.1891 51.7716 48.1891V23.1959H52.6767ZM1.78523 20.5306C1.78523 20.2503 1.9209 19.9834 2.14941 19.8174L26.5803 2.12755C27.2185 1.66339 28.1236 1.66339 28.7636 2.12755L53.1926 19.8174C53.4211 19.9825 53.5568 20.2494 53.5568 20.5306C53.5568 21.0161 53.1623 21.4107 52.6767 21.4107H44.1076L42.3224 19.6255H49.8828L27.671 3.54055L5.45833 19.6255H13.0188L11.2335 21.4107H2.66445C2.17976 21.4107 1.78523 21.0161 1.78523 20.5306ZM34.2505 48.1891C39.3009 44.5838 44.6307 39.213 44.6307 35.6372C44.6307 34.6401 43.8086 32.945 43.6658 32.6639C42.2519 29.3639 42.833 26.6816 44.2281 23.4244L44.3263 23.1959H46.4159V48.1891H34.2505ZM11.0157 23.1959L11.1139 23.4244C12.5091 26.6807 13.0902 29.363 11.6986 32.6157C11.5335 32.945 10.7114 34.6392 10.7114 35.6372C10.7114 39.213 16.0412 44.5838 21.0916 48.1891H8.92614V23.1959H11.0157ZM12.4966 35.6372C12.4966 35.264 12.909 34.1867 13.3169 33.3663C15.0745 29.2648 14.0854 25.8273 12.7546 22.7219L12.6626 22.5077L17.148 18.0223C20.4899 19.4853 24.3478 19.455 27.671 17.9375C30.9933 19.455 34.8512 19.4844 38.194 18.0223L42.6794 22.5077L42.5875 22.7219C41.2566 25.8273 40.2667 29.2648 42.0466 33.4146C42.4331 34.1858 42.8455 35.264 42.8455 35.6372C42.8455 39.3763 33.1847 47.9044 27.671 49.9217C22.1574 47.9044 12.4966 39.3763 12.4966 35.6372ZM38.5582 15.8613L37.9825 16.1487C34.8789 17.7001 31.1727 17.7001 28.07 16.1487L27.671 15.9497L27.272 16.1496C24.1684 17.701 20.4623 17.701 17.3596 16.1496L16.7838 15.8622L14.8049 17.8402H10.9675L27.671 5.74442L44.3745 17.8402H40.5372L38.5582 15.8613ZM5.35568 23.1959H7.14091V48.1891H5.35568V23.1959ZM51.7716 53.5448H3.57045V49.9743H23.8114C25.1485 50.7714 26.383 51.3784 27.389 51.7131L27.671 51.8078L27.9531 51.714C28.9591 51.3793 30.1936 50.7714 31.5307 49.9752H51.7716V53.5448ZM49.9864 48.1891H48.2011V23.1959H49.9864V48.1891Z" fill="black"/>
</svg>
